{
    "asset" : {
        "generator" : "Khronos glTF Blender I/O v3.4.50",
        "version" : "2.0"
    },
    "scene" : 0,
    "scenes" : [
        {
            "name" : "Scene",
            "nodes" : [
                0
            ]
        }
    ],
    "nodes" : [
        {
            "mesh" : 0,
            "name" : "\u5706\u73af",
            "rotation" : [
                0,
                0,
                -0.7071068286895752,
                0.7071068286895752
            ],
            "translation" : [
                0,
                1.189096212387085,
                0
            ]
        }
    ],
    "meshes" : [
        {
            "name" : "\u5706\u73af",
            "primitives" : [
                {
                    "attributes" : {
                        "POSITION" : 0,
                        "TEXCOORD_0" : 1,
                        "NORMAL" : 2
                    },
                    "indices" : 3
                }
            ]
        }
    ],
    "accessors" : [
        {
            "bufferView" : 0,
            "componentType" : 5126,
            "count" : 146,
            "max" : [
                0.9848077297210693,
                0.1338932067155838,
                0.9396926164627075
            ],
            "min" : [
                -0.9848077297210693,
                -11.308606147766113,
                -1
            ],
            "type" : "VEC3"
        },
        {
            "bufferView" : 1,
            "componentType" : 5126,
            "count" : 146,
            "type" : "VEC2"
        },
        {
            "bufferView" : 2,
            "componentType" : 5126,
            "count" : 146,
            "type" : "VEC3"
        },
        {
            "bufferView" : 3,
            "componentType" : 5123,
            "count" : 774,
            "type" : "SCALAR"
        }
    ],
    "bufferViews" : [
        {
            "buffer" : 0,
            "byteLength" : 1752,
            "byteOffset" : 0,
            "target" : 34962
        },
        {
            "buffer" : 0,
            "byteLength" : 1168,
            "byteOffset" : 1752,
            "target" : 34962
        },
        {
            "buffer" : 0,
            "byteLength" : 1752,
            "byteOffset" : 2920,
            "target" : 34962
        },
        {
            "buffer" : 0,
            "byteLength" : 1548,
            "byteOffset" : 4672,
            "target" : 34963
        }
    ],
    "buffers" : [
        {
            "byteLength" : 6220,
            "uri" : "data:application/octet-stream;base64,"
        }
    ]
}
